Coordinates
version=1
nRows=9
nColumns=42
inDegrees=yes

Units are S.I. units (second, meters, Newtons, ...)
If the header above contains a line with 'inDegrees', this indicates whether rotational values are in degrees (yes) or radians (no).

endheader
time	pelvis_tilt	pelvis_list	pelvis_rotation	pelvis_tx	pelvis_ty	pelvis_tz	hip_flexion_r	hip_adduction_r	hip_rotation_r	knee_angle_r	knee_adduction_r	knee_angle_r_beta	ankle_angle_r	subtalar_angle_r	mtp_angle_r	hip_flexion_l	hip_adduction_l	hip_rotation_l	knee_angle_l	knee_adduction_l	knee_angle_l_beta	ankle_angle_l	subtalar_angle_l	mtp_angle_l	lumbar_extension	lumbar_bending	lumbar_rotation	arm_flex_r	arm_add_r	arm_rot_r	elbow_flex_r	pro_sup_r	wrist_flex_r	wrist_dev_r	arm_flex_l	arm_add_l	arm_rot_l	elbow_flex_l	pro_sup_l	wrist_flex_l	wrist_dev_l
     11.25000000	     -6.70589399	      4.34811282	     -1.97645936	      0.81977010	      0.94901495	      0.47355271	      9.43638505	     -8.15203655	     -5.71350289	     56.93104734	      6.25096954	      0.99363422	    -22.90087145	    -10.93981735	    -20.88764073	     27.88428324	      2.62520761	    -11.80619793	     23.53725156	      6.43431604	      0.41080254	     -3.34372882	     -2.40678310	    -11.68230211	      0.00000000	      0.00000000	      0.00000000	      0.00000000	    -10.24916387	      0.00000000	     74.99405582	     90.00000001	      0.00000000	      0.00000000	      0.00000000	    -10.24916387	      0.00000000	     74.99405582	     90.00000001	      0.00000000	      0.00000000
     11.25500000	     -6.80960058	      4.38335941	     -2.22028923	      0.81945338	      0.94910587	      0.47356752	     10.62030615	     -8.06671091	     -5.12078439	     58.51833289	      6.25096954	      1.02133758	    -24.35071281	    -12.12614664	    -17.76696166	     27.74677217	      2.58721759	    -11.98888531	     23.82874797	      6.43431604	      0.41589011	     -2.88589223	     -2.37878865	    -11.46536415	      0.00000000	      0.00000000	      0.00000000	      0.00000000	    -10.26310327	      0.00000000	     74.99409089	     90.00000001	      0.00000000	      0.00000000	      0.00000000	    -10.26310327	      0.00000000	     74.99409089	     90.00000001	      0.00000000	      0.00000000
     11.26000000	     -6.72452922	      4.45340020	     -2.34868861	      0.81910139	      0.94945297	      0.47335263	     11.57130165	     -8.06407440	     -4.65855736	     60.13946823	      6.25096954	      1.04963173	    -23.42841213	    -11.21271505	    -10.55770439	     27.40941832	      2.66358176	    -12.05180017	     24.15852201	      6.43431604	      0.42164575	     -2.05324833	     -2.09812749	    -10.61207783	      0.00000000	      0.00000000	      0.00000000	      0.00000000	    -10.31762373	      0.00000000	     74.99422713	     90.00000001	      0.00000000	      0.00000000	      0.00000000	    -10.31762373	      0.00000000	     74.99422713	     90.00000001	      0.00000000	      0.00000000
     11.26500000	     -6.69117821	      4.59415019	     -2.59278544	      0.81888556	      0.94983188	      0.47333188	     12.53821547	     -8.09819833	     -4.05147380	     61.54661515	      6.25096954	      1.07419108	    -23.60211160	    -11.56760335	    -10.34717021	     27.00535284	      2.75298793	    -12.25753743	     24.23835947	      6.43431604	      0.42303918	     -1.69496775	     -2.12386424	    -10.58392990	      0.00000000	      0.00000000	      0.00000000	      0.00000000	    -10.32943114	      0.00000000	     74.99425643	     90.00000001	      0.00000000	      0.00000000	      0.00000000	    -10.32943114	      0.00000000	     74.99425643	     90.00000001	      0.00000000	      0.00000000
     11.27000000	     -6.61442866	      4.71459482	     -2.80069305	      0.81872258	      0.95034920	      0.47320969	     13.40617229	     -8.14373694	     -3.56148939	     62.86385547	      6.25096954	      1.09718126	    -23.24766888	    -11.67381862	    -10.57748270	     26.54534623	      2.84710495	    -12.43357611	     24.31503003	      6.43431604	      0.42437733	     -1.25160300	     -2.08622184	    -10.55677637	      0.00000000	      0.00000000	      0.00000000	      0.00000000	    -10.33952660	      0.00000000	     74.99428142	     90.00000001	      0.00000000	      0.00000000	      0.00000000	    -10.33952660	      0.00000000	     74.99428142	     90.00000001	      0.00000000	      0.00000000
     11.27500000	     -6.42418538	      4.58576270	     -2.77397116	      0.81847098	      0.95118990	      0.47283121	     13.99619811	     -7.92087917	     -3.33992550	     63.94238662	      6.25096954	      1.11600518	    -22.81318420	    -11.97987959	    -10.71629587	     25.94777413	      2.81721837	    -12.20257935	     24.35232284	      6.43431604	      0.42502821	     -0.89697147	     -2.07973569	    -10.62340467	      0.00000000	      0.00000000	      0.00000000	      0.00000000	    -10.34169657	      0.00000000	     74.99428679	     90.00000001	      0.00000000	      0.00000000	      0.00000000	    -10.34169657	      0.00000000	     74.99428679	     90.00000001	      0.00000000	      0.00000000
     11.28000000	     -6.54657583	      4.77999136	     -3.17844876	      0.81847579	      0.95155811	      0.47298184	     15.14309015	     -7.95112871	     -2.60660468	     65.19403468	      6.25096954	      1.13785056	    -21.94513812	    -11.70387004	    -10.99085921	     25.63965105	      2.87412046	    -12.71202671	     24.35848887	      6.43431604	      0.42513583	     -0.38424180	     -1.90794084	    -10.46970143	      0.00000000	      0.00000000	      0.00000000	      0.00000000	    -10.35335505	      0.00000000	     74.99431558	     90.00000001	      0.00000000	      0.00000000	      0.00000000	    -10.35335505	      0.00000000	     74.99431558	     90.00000001	      0.00000000	      0.00000000
     11.28500000	     -6.48403278	      4.80974767	     -3.33274273	      0.81832060	      0.95227554	      0.47280569	     15.95164638	     -7.88075656	     -2.22413312	     66.21073328	      6.25096954	      1.15559530	    -20.98801362	    -11.59619025	    -11.32140867	     25.15326904	      2.91272636	    -12.78913293	     24.35772977	      6.43431604	      0.42512258	      0.04349978	     -1.85163336	    -10.35767922	      0.00000000	      0.00000000	      0.00000000	      0.00000000	    -10.36146630	      0.00000000	     74.99433557	     90.00000001	      0.00000000	      0.00000000	      0.00000000	    -10.36146630	      0.00000000	     74.99433557	     90.00000001	      0.00000000	      0.00000000
     11.29000000	     -6.36400487	      4.63594803	     -3.34946624	      0.81819169	      0.95328966	      0.47239884	     16.57725184	     -7.60654983	     -2.05355007	     66.98211718	      6.25096954	      1.16905848	    -20.38525489	    -11.74096083	    -11.52376279	     24.56515830	      2.83110438	    -12.56255846	     24.27838295	      6.43431604	      0.42373772	      0.34348590	     -1.84289898	    -10.37987856	      0.00000000	      0.00000000	      0.00000000	      0.00000000	    -10.36343462	      0.00000000	     74.99434041	     90.00000001	      0.00000000	      0.00000000	      0.00000000	    -10.36343462	      0.00000000	     74.99434041	     90.00000001	      0.00000000	      0.00000000
